<svg width="24" height="24" viewBox="0 0 24 24" fill="none" xmlns="http://www.w3.org/2000/svg">
<path d="M20.2609 5.235L13.7226 1.462C12.6549 0.846 11.3341 0.846 10.2554 1.462L3.72812 5.235C2.66043 5.851 2 6.995 2 8.238V15.762C2 16.994 2.66043 18.138 3.72812 18.765L10.2664 22.538C11.3341 23.154 12.6549 23.154 13.7336 22.538L20.2719 18.765C21.3396 18.149 22 17.005 22 15.762V8.238C21.989 6.995 21.3286 5.862 20.2609 5.235ZM11.9945 6.874C13.4144 6.874 14.5592 8.018 14.5592 9.437C14.5592 10.856 13.4144 12 11.9945 12C10.5746 12 9.42983 10.856 9.42983 9.437C9.42983 8.029 10.5746 6.874 11.9945 6.874ZM14.9444 17.126H9.04458C8.153 17.126 7.63566 16.136 8.13099 15.399C8.87947 14.288 10.3324 13.54 11.9945 13.54C13.6566 13.54 15.1095 14.288 15.858 15.399C16.3533 16.125 15.825 17.126 14.9444 17.126Z" fill="white"/>
</svg>
