<svg width="24" height="24" viewBox="0 0 24 24" fill="none" xmlns="http://www.w3.org/2000/svg">
<path d="M22.0801 8.23809V15.762C22.0801 16.994 21.4197 18.1381 20.352 18.7651L13.8137 22.5381C12.746 23.1541 11.4252 23.1541 10.3465 22.5381L3.8082 18.7651C2.74051 18.1491 2.08008 17.005 2.08008 15.762V8.23809C2.08008 7.00609 2.74051 5.86204 3.8082 5.23505L10.3465 1.46206C11.4141 0.846061 12.735 0.846061 13.8137 1.46206L20.352 5.23505C21.4197 5.86204 22.0801 6.99509 22.0801 8.23809Z" stroke="white" stroke-width="1.5" stroke-linecap="round" stroke-linejoin="round"/>
<path d="M12.1677 10.9066C13.5844 10.9066 14.7329 9.75814 14.7329 8.34143C14.7329 6.92473 13.5844 5.77631 12.1677 5.77631C10.751 5.77631 9.60254 6.92473 9.60254 8.34143C9.60254 9.75814 10.751 10.9066 12.1677 10.9066Z" stroke="white" stroke-width="1.5" stroke-linecap="round" stroke-linejoin="round"/>
<path d="M16.5711 17.1379C16.5711 15.1562 14.6005 13.5489 12.1674 13.5489C9.73434 13.5489 7.76367 15.1562 7.76367 17.1379" stroke="white" stroke-width="1.5" stroke-linecap="round" stroke-linejoin="round"/>
</svg>
