<svg width="24" height="25" viewBox="0 0 24 25" fill="none" xmlns="http://www.w3.org/2000/svg">
<path d="M2 12.8951C2 9.12391 2 7.23829 3.17157 6.06671C4.34315 4.89514 6.22876 4.89514 10 4.89514H14C17.7712 4.89514 19.6569 4.89514 20.8284 6.06671C22 7.23829 22 9.12391 22 12.8951C22 16.6664 22 18.552 20.8284 19.7236C19.6569 20.8951 17.7712 20.8951 14 20.8951H10C6.22876 20.8951 4.34315 20.8951 3.17157 19.7236C2 18.552 2 16.6664 2 12.8951Z" stroke="white" stroke-opacity="1" stroke-width="1.5"/>
<path d="M6 8.89514L8.1589 10.6942C9.99553 12.2248 10.9139 12.99 12 12.99C13.0861 12.99 14.0045 12.2248 15.8411 10.6942L18 8.89514" stroke="white" stroke-opacity="1" stroke-width="1.5" stroke-linecap="round"/>
</svg>
