<svg width="24" height="24" viewBox="0 0 24 24" fill="none" xmlns="http://www.w3.org/2000/svg">
<path d="M3.27489 15.2957L3.86922 14.8382L3.27489 15.2957ZM3.27489 8.70433L2.68057 8.24686L3.27489 8.70433ZM20.725 8.70433L20.1307 9.1618L20.725 8.70433ZM20.725 15.2957L21.3193 15.7531L21.3193 15.7531L20.725 15.2957ZM8.43458 3.85877C8.04434 3.99765 7.84057 4.42658 7.97945 4.81682C8.11832 5.20706 8.54726 5.41083 8.93749 5.27195L8.68604 4.56536L8.43458 3.85877ZM19.6177 15.4682C19.3472 15.782 19.3824 16.2556 19.6961 16.526C20.0099 16.7964 20.4835 16.7613 20.7539 16.4475L20.1858 15.9579L19.6177 15.4682ZM4.53033 3.46967C4.23744 3.17678 3.76256 3.17678 3.46967 3.46967C3.17678 3.76256 3.17678 4.23744 3.46967 4.53033L4 4L4.53033 3.46967ZM19.4697 20.5303C19.7626 20.8232 20.2374 20.8232 20.5303 20.5303C20.8232 20.2374 20.8232 19.7626 20.5303 19.4697L20 20L19.4697 20.5303ZM12 20V19.25C8.15036 19.25 5.49864 16.9551 3.86922 14.8382L3.27489 15.2957L2.68057 15.7531C4.44529 18.0458 7.48587 20.75 12 20.75V20ZM3.27489 8.70433L2.68057 8.24686C2.26922 8.78127 1.88868 9.26895 1.63269 9.8484C1.36564 10.4529 1.25 11.1117 1.25 12H2H2.75C2.75 11.2489 2.84684 10.812 3.00476 10.4545C3.17374 10.0721 3.43064 9.73159 3.86922 9.1618L3.27489 8.70433ZM3.27489 15.2957L3.86922 14.8382C3.43064 14.2684 3.17374 13.9279 3.00476 13.5455C2.84684 13.188 2.75 12.7511 2.75 12H2H1.25C1.25 12.8883 1.36564 13.5471 1.63269 14.1516C1.88868 14.7311 2.26922 15.2187 2.68057 15.7531L3.27489 15.2957ZM3.27489 8.70433L3.86922 9.1618C4.54356 8.28572 5.3998 7.37186 6.4471 6.60517L6.00407 6L5.56104 5.39483C4.37295 6.26461 3.4187 7.2879 2.68057 8.24686L3.27489 8.70433ZM18 17.997L17.5567 17.392C16.0925 18.4649 14.2568 19.25 12 19.25V20V20.75C14.6306 20.75 16.7701 19.828 18.4433 18.602L18 17.997ZM11.9999 4V4.75C15.8495 4.75 18.5013 7.04492 20.1307 9.1618L20.725 8.70433L21.3193 8.24686C19.5546 5.9542 16.514 3.25 11.9999 3.25V4ZM20.725 8.70433L20.1307 9.1618C20.5693 9.73159 20.8262 10.0721 20.9951 10.4545C21.1531 10.812 21.2499 11.2489 21.2499 12H21.9999H22.7499C22.7499 11.1117 22.6343 10.4529 22.3672 9.8484C22.1112 9.26895 21.7307 8.78127 21.3193 8.24686L20.725 8.70433ZM20.725 15.2957L21.3193 15.7531C21.7307 15.2187 22.1112 14.7311 22.3672 14.1516C22.6343 13.5471 22.7499 12.8883 22.7499 12H21.9999H21.2499C21.2499 12.7511 21.1531 13.188 20.9951 13.5455C20.8262 13.9279 20.5693 14.2684 20.1307 14.8382L20.725 15.2957ZM8.68604 4.56536L8.93749 5.27195C9.85451 4.9456 10.8727 4.75 11.9999 4.75V4V3.25C10.695 3.25 9.50703 3.47711 8.43458 3.85877L8.68604 4.56536ZM20.725 15.2957L20.1307 14.8382C19.9702 15.0466 19.7993 15.2575 19.6177 15.4682L20.1858 15.9579L20.7539 16.4475C20.9546 16.2146 21.143 15.9822 21.3193 15.7531L20.725 15.2957ZM12 15V14.25C10.7574 14.25 9.75 13.2426 9.75 12H9H8.25C8.25 14.0711 9.92893 15.75 12 15.75V15ZM9 12H9.75C9.75 11.4233 9.96602 10.8988 10.3227 10.5002L9.76389 10L9.20504 9.49981C8.61169 10.1628 8.25 11.04 8.25 12H9ZM14.2361 14L13.6773 13.4998C13.2642 13.9613 12.6663 14.25 12 14.25V15V15.75C13.1107 15.75 14.1094 15.2662 14.795 14.5002L14.2361 14ZM4 4L3.46967 4.53033L19.4697 20.5303L20 20L20.5303 19.4697L4.53033 3.46967L4 4Z" fill="white"/>
</svg>
