<svg width="24" height="25" viewBox="0 0 24 25" fill="none" xmlns="http://www.w3.org/2000/svg">
<path d="M6 10.8951V8.89514C6 5.58143 8.68629 2.89514 12 2.89514C15.3137 2.89514 18 5.58143 18 8.89514V10.8951M8 22.8951H16C18.8284 22.8951 20.2426 22.8951 21.1213 22.0165C22 21.1378 22 19.7236 22 16.8951C22 14.0667 22 12.6525 21.1213 11.7738C20.2426 10.8951 18.8284 10.8951 16 10.8951H8C5.17157 10.8951 3.75736 10.8951 2.87868 11.7738C2 12.6525 2 14.0667 2 16.8951C2 19.7236 2 21.1378 2.87868 22.0165C3.75736 22.8951 5.17157 22.8951 8 22.8951Z" stroke="white" stroke-opacity="1" stroke-width="1.5" stroke-linecap="round"/>
</svg>
